<svg width="321" height="151" viewBox="0 0 321 151" fill="none" xmlns="http://www.w3.org/2000/svg">
<path d="M289.425 99C287.882 99 286.286 98.809 284.638 98.4269C283.025 98.0448 281.534 97.3953 280.166 96.4783C279.71 96.1344 279.395 95.7523 279.219 95.332C279.044 94.9117 278.974 94.4914 279.009 94.0711C279.079 93.6126 279.237 93.2306 279.482 92.9249C279.763 92.581 280.096 92.3709 280.482 92.2945C280.903 92.2181 281.341 92.3136 281.797 92.581C283.165 93.4216 284.48 94.0138 285.743 94.3577C287.005 94.6634 288.251 94.8162 289.478 94.8162C291.337 94.8162 292.74 94.4532 293.687 93.7273C294.634 93.0013 295.107 92.027 295.107 90.8043C295.107 89.8109 294.792 89.0468 294.16 88.5119C293.529 87.9387 292.582 87.4993 291.319 87.1937L286.321 86.1047C284.147 85.608 282.499 84.7292 281.376 83.4684C280.254 82.2075 279.693 80.6028 279.693 78.6541C279.693 76.8966 280.131 75.3682 281.008 74.0692C281.885 72.7701 283.112 71.7767 284.691 71.0889C286.269 70.363 288.093 70 290.162 70C291.705 70 293.161 70.2101 294.529 70.6304C295.896 71.0507 297.159 71.6812 298.316 72.5217C298.772 72.7892 299.071 73.1522 299.211 73.6107C299.351 74.031 299.369 74.4512 299.263 74.8715C299.193 75.2918 299.018 75.6739 298.737 76.0178C298.457 76.3234 298.106 76.5145 297.685 76.5909C297.299 76.6291 296.861 76.5145 296.37 76.247C295.318 75.5211 294.266 75.0053 293.213 74.6996C292.196 74.3939 291.179 74.2411 290.162 74.2411C288.303 74.2411 286.9 74.6232 285.953 75.3873C285.041 76.1133 284.585 77.1067 284.585 78.3676C284.585 79.3228 284.866 80.1061 285.427 80.7174C285.988 81.3287 286.865 81.7681 288.058 82.0356L293.056 83.1245C295.335 83.6212 297.054 84.4618 298.211 85.6462C299.404 86.8307 300 88.4354 300 90.4605C300 93.0968 299.035 95.1792 297.106 96.7075C295.177 98.2358 292.617 99 289.425 99Z" fill="#EDEDED"/>
<path d="M271.778 99C269.556 99 267.685 98.6131 266.167 97.8392C264.648 97.0654 263.519 95.923 262.778 94.4122C262.037 92.9014 261.667 91.0589 261.667 88.8847V75.8399H258.333C257.593 75.8399 257.019 75.6557 256.611 75.2872C256.204 74.8818 256 74.3475 256 73.6842C256 72.9841 256.204 72.4498 256.611 72.0813C257.019 71.7128 257.593 71.5285 258.333 71.5285H261.667V53.819C261.667 52.8978 261.907 52.1976 262.389 51.7186C262.907 51.2395 263.611 51 264.5 51C265.389 51 266.074 51.2395 266.556 51.7186C267.037 52.1976 267.278 52.8978 267.278 53.819V71.5285H273.778C274.519 71.5285 275.093 71.7128 275.5 72.0813C275.907 72.4498 276.111 72.9841 276.111 73.6842C276.111 74.3475 275.907 74.8818 275.5 75.2872C275.093 75.6557 274.519 75.8399 273.778 75.8399H267.278V88.4425C267.278 90.3956 267.685 91.8696 268.5 92.8645C269.352 93.8595 270.722 94.3569 272.611 94.3569C273.278 94.3569 273.852 94.3017 274.333 94.1911C274.852 94.0437 275.278 93.9516 275.611 93.9147C276.019 93.9147 276.352 94.0621 276.611 94.3569C276.87 94.6149 277 95.1308 277 95.9046C277 96.4574 276.889 96.9733 276.667 97.4523C276.481 97.9314 276.13 98.2446 275.611 98.392C275.167 98.5394 274.556 98.6684 273.778 98.7789C273.037 98.9263 272.37 99 271.778 99Z" fill="#38B2AC"/>
<path d="M239.748 99C237.886 99 236.206 98.6179 234.71 97.8538C233.249 97.0896 232.099 96.058 231.26 94.7589C230.42 93.4598 230 91.9888 230 90.3458C230 88.2826 230.493 86.6588 231.479 85.4743C232.501 84.2516 234.162 83.392 236.462 82.8953C238.798 82.3603 241.938 82.0929 245.881 82.0929H248.455V85.6462H245.936C243.307 85.6462 241.226 85.78 239.693 86.0474C238.16 86.3149 237.064 86.7734 236.407 87.4229C235.787 88.0343 235.476 88.8939 235.476 90.002C235.476 91.4539 235.951 92.6383 236.9 93.5553C237.849 94.4341 239.163 94.8735 240.843 94.8735C242.194 94.8735 243.38 94.5487 244.402 93.8992C245.425 93.2115 246.228 92.2945 246.812 91.1482C247.433 90.002 247.743 88.6838 247.743 87.1937V80.6028C247.743 78.4249 247.305 76.8584 246.429 75.9032C245.552 74.948 244.11 74.4704 242.102 74.4704C240.934 74.4704 239.711 74.6232 238.433 74.9289C237.192 75.2345 235.896 75.7503 234.545 76.4763C233.925 76.7819 233.395 76.8775 232.957 76.7628C232.519 76.6482 232.172 76.3999 231.917 76.0178C231.661 75.5975 231.515 75.1581 231.479 74.6996C231.479 74.2029 231.588 73.7253 231.807 73.2668C232.063 72.8083 232.483 72.4644 233.067 72.2352C234.673 71.4328 236.261 70.8597 237.831 70.5158C239.401 70.1719 240.879 70 242.267 70C244.713 70 246.721 70.4012 248.29 71.2036C249.897 72.0059 251.083 73.2286 251.85 74.8715C252.617 76.5145 253 78.635 253 81.2332V95.9625C253 96.8794 252.781 97.6054 252.343 98.1403C251.905 98.637 251.266 98.8854 250.426 98.8854C249.623 98.8854 248.984 98.637 248.51 98.1403C248.035 97.6054 247.798 96.8794 247.798 95.9625V92.2372H248.29C247.998 93.6509 247.451 94.8735 246.648 95.9051C245.881 96.8985 244.913 97.6627 243.745 98.1976C242.577 98.7325 241.244 99 239.748 99Z" fill="#EDEDED"/>
<path d="M222.026 99C219.91 99 218.129 98.6196 216.683 97.8589C215.236 97.0982 214.16 95.9752 213.455 94.4899C212.75 93.0046 212.397 91.1933 212.397 89.056V76.2321H209.222C208.517 76.2321 207.97 76.051 207.582 75.6887C207.194 75.2902 207 74.7649 207 74.1129C207 73.4246 207.194 72.8993 207.582 72.5371C207.97 72.1748 208.517 71.9937 209.222 71.9937H212.397V42.7713C212.397 41.8656 212.626 41.1773 213.085 40.7064C213.578 40.2355 214.249 40 215.095 40C215.942 40 216.594 40.2355 217.053 40.7064C217.511 41.1773 217.741 41.8656 217.741 42.7713V71.9937H223.931C224.637 71.9937 225.183 72.1748 225.571 72.5371C225.959 72.8993 226.153 73.4246 226.153 74.1129C226.153 74.7649 225.959 75.2902 225.571 75.6887C225.183 76.051 224.637 76.2321 223.931 76.2321H217.741V88.6213C217.741 90.5413 218.129 91.9903 218.905 92.9684C219.716 93.9465 221.021 94.4356 222.82 94.4356C223.455 94.4356 224.002 94.3812 224.46 94.2725C224.954 94.1276 225.36 94.0371 225.677 94.0008C226.065 94.0008 226.383 94.1457 226.63 94.4356C226.877 94.6891 227 95.1963 227 95.957C227 96.5004 226.894 97.0076 226.683 97.4785C226.506 97.9495 226.171 98.2574 225.677 98.4023C225.254 98.5472 224.672 98.674 223.931 98.7826C223.226 98.9276 222.591 99 222.026 99Z" fill="#38B2AC"/>
<path d="M191.963 99C190.362 99 188.797 98.8709 187.266 98.6127C185.736 98.3545 184.292 97.9673 182.935 97.4509C181.578 96.8976 180.361 96.2337 179.282 95.4592C178.76 95.0535 178.395 94.5924 178.186 94.0761C178.012 93.5597 177.96 93.0618 178.03 92.5823C178.134 92.0659 178.343 91.6233 178.656 91.2545C178.969 90.8857 179.352 90.6644 179.804 90.5906C180.256 90.4799 180.761 90.6275 181.317 91.0332C182.883 92.1028 184.535 92.8958 186.275 93.4122C188.014 93.8917 189.91 94.1314 191.963 94.1314C194.92 94.1314 197.094 93.5781 198.486 92.4716C199.912 91.3283 200.625 89.8529 200.625 88.0456C200.625 86.5703 200.121 85.4085 199.112 84.5602C198.103 83.675 196.416 82.9742 194.05 82.4578L188.466 81.2407C185.162 80.503 182.692 79.2858 181.056 77.5892C179.456 75.8926 178.656 73.6058 178.656 70.7289C178.656 68.9954 178.987 67.4094 179.647 65.971C180.343 64.5325 181.3 63.2969 182.518 62.2642C183.735 61.1946 185.196 60.3831 186.901 59.8299C188.606 59.2766 190.467 59 192.485 59C194.641 59 196.659 59.2951 198.538 59.8852C200.451 60.4753 202.156 61.379 203.652 62.5961C204.104 62.9281 204.4 63.3522 204.539 63.8686C204.713 64.3481 204.748 64.8276 204.643 65.3071C204.574 65.7865 204.382 66.1923 204.069 66.5242C203.756 66.8562 203.356 67.059 202.869 67.1328C202.382 67.1697 201.843 66.9852 201.251 66.5795C199.895 65.6206 198.503 64.9382 197.077 64.5325C195.685 64.0899 194.137 63.8686 192.432 63.8686C190.728 63.8686 189.232 64.1452 187.945 64.6985C186.692 65.2517 185.718 66.0263 185.022 67.0221C184.361 68.018 184.031 69.1982 184.031 70.5629C184.031 72.112 184.501 73.3476 185.44 74.2697C186.379 75.1918 187.945 75.8926 190.136 76.3721L195.668 77.5892C199.147 78.3638 201.738 79.5625 203.443 81.1853C205.148 82.8082 206 84.9659 206 87.6584C206 89.3919 205.67 90.9594 205.009 92.361C204.348 93.7257 203.408 94.9059 202.191 95.9018C200.973 96.8976 199.494 97.6722 197.755 98.2254C196.05 98.7418 194.12 99 191.963 99Z" fill="#EDEDED"/>
<path d="M157.601 99C153.356 99 149.775 98.207 146.859 96.621C143.943 94.9982 141.728 92.6929 140.215 89.7054C138.738 86.7178 138 83.1586 138 79.0277C138 75.9295 138.424 73.1632 139.273 70.7289C140.159 68.2577 141.414 66.1554 143.039 64.4219C144.7 62.6515 146.711 61.3052 149.074 60.3831C151.473 59.461 154.186 59 157.213 59C159.428 59 161.606 59.2951 163.747 59.8852C165.888 60.4385 167.844 61.3605 169.616 62.6515C170.133 63.0203 170.465 63.4444 170.612 63.9239C170.76 64.4034 170.76 64.9013 170.612 65.4177C170.502 65.8972 170.262 66.3213 169.893 66.6902C169.56 67.059 169.136 67.2803 168.619 67.3541C168.139 67.4278 167.604 67.2803 167.013 66.9115C165.574 65.9156 164.06 65.1964 162.473 64.7538C160.886 64.2743 159.133 64.0346 157.213 64.0346C154.334 64.0346 151.898 64.6247 149.904 65.805C147.948 66.9852 146.471 68.7003 145.475 70.9502C144.478 73.1632 143.98 75.8557 143.98 79.0277C143.98 83.9331 145.143 87.6584 147.468 90.2033C149.794 92.7483 153.245 94.0207 157.822 94.0207C159.483 94.0207 161.107 93.8732 162.695 93.5781C164.319 93.2462 165.869 92.7852 167.346 92.195L166.183 95.0719V82.1812H159.04C158.302 82.1812 157.711 81.9968 157.268 81.6279C156.862 81.2222 156.659 80.669 156.659 79.9682C156.659 79.2674 156.862 78.751 157.268 78.4191C157.711 78.0503 158.302 77.8658 159.04 77.8658H168.619C169.394 77.8658 169.985 78.0687 170.391 78.4744C170.797 78.8801 171 79.4703 171 80.2448V94.1867C171 94.8506 170.871 95.4223 170.612 95.9018C170.391 96.3444 170.003 96.6763 169.45 96.8976C167.862 97.5247 165.998 98.041 163.857 98.4467C161.716 98.8156 159.631 99 157.601 99Z" fill="#EDEDED"/>
<path d="M118.413 99C114.425 99 111.062 98.207 108.322 96.621C105.583 94.9982 103.502 92.6929 102.081 89.7054C100.694 86.7178 100 83.1586 100 79.0277C100 75.9295 100.399 73.1632 101.196 70.7289C102.029 68.2577 103.207 66.1554 104.733 64.4219C106.294 62.6515 108.183 61.3052 110.403 60.3831C112.657 59.461 115.205 59 118.049 59C120.129 59 122.175 59.2951 124.186 59.8852C126.197 60.4385 128.035 61.3605 129.7 62.6515C130.185 63.0203 130.497 63.4444 130.636 63.9239C130.775 64.4034 130.775 64.9013 130.636 65.4177C130.532 65.8972 130.306 66.3213 129.96 66.6902C129.648 67.059 129.249 67.2803 128.763 67.3541C128.313 67.4278 127.81 67.2803 127.255 66.9115C125.903 65.9156 124.481 65.1964 122.99 64.7538C121.499 64.2743 119.852 64.0346 118.049 64.0346C115.344 64.0346 113.055 64.6247 111.183 65.805C109.345 66.9852 107.958 68.7003 107.022 70.9502C106.086 73.1632 105.617 75.8557 105.617 79.0277C105.617 83.9331 106.71 87.6584 108.894 90.2033C111.079 92.7483 114.321 94.0207 118.621 94.0207C120.181 94.0207 121.707 93.8732 123.198 93.5781C124.724 93.2462 126.18 92.7852 127.567 92.195L126.475 95.0719V82.1812H119.765C119.072 82.1812 118.517 81.9968 118.101 81.6279C117.719 81.2222 117.529 80.669 117.529 79.9682C117.529 79.2674 117.719 78.751 118.101 78.4191C118.517 78.0503 119.072 77.8658 119.765 77.8658H128.763C129.492 77.8658 130.046 78.0687 130.428 78.4744C130.809 78.8801 131 79.4703 131 80.2448V94.1867C131 94.8506 130.879 95.4223 130.636 95.9018C130.428 96.3444 130.064 96.6763 129.544 96.8976C128.053 97.5247 126.301 98.041 124.29 98.4467C122.279 98.8156 120.32 99 118.413 99Z" fill="#EDEDED"/>
<path d="M12.9348 27C16.4912 27 19.4223 29.6747 19.8229 33.1206L19.8696 33.9286V110.143H308.065C311.895 110.143 315 113.245 315 117.071C315 120.625 312.323 123.553 308.874 123.953L308.065 124H19.8696C12.5578 124 6.56751 118.347 6.03804 111.177L6 110.143V33.9286C6 30.1021 9.10485 27 12.9348 27Z" fill="#38B2AC"/>
<path fill-rule="evenodd" clip-rule="evenodd" d="M82.5 53C84.9853 53 87 55.1208 87 57.7368V93.2632C87 95.8792 84.9853 98 82.5 98C80.0147 98 78 95.8792 78 93.2632V57.7368C78 55.1208 80.0147 53 82.5 53Z" fill="#38B2AC"/>
<path fill-rule="evenodd" clip-rule="evenodd" d="M40.5 67C42.9853 67 45 69.1771 45 71.8627V93.1373C45 95.8229 42.9853 98 40.5 98C38.0147 98 36 95.8229 36 93.1373V71.8627C36 69.1771 38.0147 67 40.5 67Z" fill="#38B2AC"/>
<path fill-rule="evenodd" clip-rule="evenodd" d="M61.5 39C63.9853 39 66 41.1132 66 43.72V93.28C66 95.8868 63.9853 98 61.5 98C59.0147 98 57 95.8868 57 93.28V43.72C57 41.1132 59.0147 39 61.5 39Z" fill="#38B2AC"/>
</svg>
